<svg className="svg-icon" style="width: 1em; height: 1em;vertical-align: middle;fill: currentColor;overflow: hidden;" viewBox="0 0 1024 1024" version="1.1" xmlns="http://www.w3.org/2000/svg"><path d="M507.896542 967.660854c-248.415766 0-450.535113-202.109114-450.535113-450.545346S259.480776 66.571185 507.896542 66.571185c248.436232 0 450.555579 202.109114 450.555579 450.545346S756.332774 967.660854 507.896542 967.660854zM507.896542 97.719602c-231.260038 0-419.386696 188.136891-419.386696 419.396929s188.126658 419.396929 419.386696 419.396929S927.303704 748.376569 927.303704 517.116531 739.15658 97.719602 507.896542 97.719602z"  /><path d="M600.461751 535.083741c4.473895 0 8.924253-1.702782 12.329816-5.109368 6.812149-6.812149 6.812149-17.848507 0-24.660656L473.875704 366.408087c-6.812149-6.812149-17.848507-6.812149-24.660656 0s-6.812149 17.848507 0 24.660656l138.916886 138.90563C591.537498 533.379936 595.98888 535.083741 600.461751 535.083741z"  /><path d="M461.969537 673.575956c4.473895 0 8.924253-1.702782 12.329816-5.109368L609.475032 533.290909c6.812149-6.812149 6.812149-17.848507 0-24.660656s-17.848507-6.812149-24.660656 0L449.638697 643.805932c-6.812149 6.812149-6.812149 17.848507 0 24.660656C453.045283 671.873174 457.495642 673.575956 461.969537 673.575956z"  /></svg>